<svg id="Layer_1" data-name="Layer 1" xmlns="http://www.w3.org/2000/svg" viewBox="0 0 507.16 279.33"><defs><style>.cls-1{fill:#cecece;}.cls-2{fill:#6d6d6d;}.cls-3{fill:#fff;}.cls-4{fill:#00a6aa;}.cls-5{fill:#f8f8f8;}</style></defs><g id="Layer_2" data-name="Layer 2"><g id="ELEMENTOS"><ellipse class="cls-1" cx="253.58" cy="270.52" rx="253.58" ry="8.81"/><path class="cls-2" d="M195.68,33c-2.66-1-6,0-9.12,1.74-1.37-4.74-4.31-11-10.56-13.94-10.77-5.15-16.38,11-16.38,11S148.87-.73,130.14,3.48s-15.45,28.28-15.45,28.28-5.15-10.49-16.85-8.62-7,22.11-7,22.11C75.84,47.69,67,51.36,67,51.36H228L203,44.8C202.65,41.52,201.2,35,195.68,33Z" transform="translate(0 -0.01)"/><path class="cls-2" d="M447.59,193.89c-1.57-.59-3.51,0-5.37,1-.81-2.78-2.53-6.43-6.2-8.18-6.33-3-9.63,6.45-9.63,6.45S420.05,174,409,176.52s-9,16.66-9,16.66-3-6.18-9.91-5.07-4.13,13-4.13,13a69.72,69.72,0,0,0-14,3.6h94.71L452,200.85C451.68,198.91,450.83,195.1,447.59,193.89Z" transform="translate(0 -0.01)"/><path class="cls-2" d="M330.22,23.25c2.07-.77,4.64,0,7.1,1.35,1.07-3.67,3.35-8.5,8.2-10.82,8.39-4,12.76,8.53,12.76,8.53s8.38-25.3,23-22,12,22,12,22,4-8.17,13.12-6.71,5.47,17.2,5.47,17.2a91.7,91.7,0,0,1,18.58,4.77H305.07l19.43-5.11C324.79,29.91,325.93,24.86,330.22,23.25Z" transform="translate(0 -0.01)"/><path class="cls-2" d="M51.58,144.35c1.21-.46,2.72,0,4.16.78.62-2.14,2-5,4.79-6.33,4.91-2.34,7.46,5,7.46,5s4.9-14.79,13.43-12.87,7,12.87,7,12.87,2.34-4.77,7.67-3.92,3.2,10.06,3.2,10.06a54.38,54.38,0,0,1,10.87,2.78H36.88l11.36-3C48.41,148.24,49.07,145.29,51.58,144.35Z" transform="translate(0 -0.01)"/><rect class="cls-1" x="100.11" y="62.45" width="306.94" height="194.45" rx="8.4"/><rect class="cls-3" x="105.47" y="62.45" width="301.58" height="194.45" rx="8.4"/><rect class="cls-4" x="113.05" y="75.8" width="281.06" height="148.68" rx="4.72"/><path class="cls-1" d="M440.18,246.09v2.72a18.94,18.94,0,0,1-18.94,18.94H85.92A18.94,18.94,0,0,1,67,248.81v-2.72Z" transform="translate(0 -0.01)"/><path class="cls-3" d="M440.18,246.09v2.72a18.94,18.94,0,0,1-18.94,18.94H93a18.94,18.94,0,0,1-15.3-18.58v-3.08Z" transform="translate(0 -0.01)"/><rect class="cls-1" x="193.73" y="246.08" width="119.7" height="5"/><rect class="cls-1" x="100.11" y="243.69" width="306.94" height="2.39"/><polygon class="cls-5" points="230.95 111.2 216.1 126.05 201.25 111.2 195.3 117.14 210.16 131.99 195.3 146.85 201.25 152.79 216.1 137.94 230.95 152.79 236.9 146.85 222.04 131.99 236.9 117.14 230.95 111.2"/><polygon class="cls-5" points="311.85 117.14 305.91 111.2 291.06 126.05 276.2 111.2 270.26 117.14 285.12 131.99 270.26 146.85 276.2 152.79 291.06 137.94 305.91 152.79 311.85 146.85 297 131.99 311.85 117.14"/><path class="cls-5" d="M285.4,189.09c-31.43-21.71-63.28-.22-63.6,0l-4.12-6c.36-.25,36.34-24.52,71.84,0Z" transform="translate(0 -0.01)"/></g></g></svg>